<svg width="300" height="100" viewBox="0 0 421 177" fill="none" xmlns="http://www.w3.org/2000/svg">
<path fill-rule="evenodd" clip-rule="evenodd" d="M72.7018 173.537V147.68H0.5V116.004L53.5675 3.46304H93.8044L41.4407 114.511H72.7018V72.9548H108.38V114.511H123.143V147.68H108.38V173.537H72.7018ZM106.458 145.756H121.221V116.435H106.458V74.8787H74.6242V116.435H38.4079L90.7715 5.38695H54.7859L2.42231 116.435V145.756H74.6242V171.613H106.458V145.756ZM210.547 177C197.97 177 186.872 174.362 177.315 169.022C167.777 163.692 160.331 156.24 155.005 146.694C149.669 137.128 147.034 126.021 147.034 113.434V63.5661C147.034 50.979 149.669 39.8719 155.005 30.3064C160.331 20.7604 167.777 13.3081 177.315 7.97821C186.872 2.63753 197.97 0 210.547 0C223.123 0 234.221 2.63753 243.779 7.97821C253.317 13.3081 260.763 20.7604 266.088 30.3064C271.425 39.8719 274.06 50.979 274.06 63.5661V113.434C274.06 126.021 271.425 137.128 266.088 146.694C260.763 156.24 253.317 163.692 243.779 169.022C234.221 174.362 223.123 177 210.547 177ZM210.547 143.37C215.766 143.37 220.425 142.141 224.569 139.709C228.745 137.259 232.046 133.956 234.494 129.776C236.923 125.629 238.151 120.967 238.151 115.743V61.0265C238.151 55.8025 236.923 51.1404 234.494 46.993C232.046 42.8134 228.745 39.5098 224.569 37.0597C220.425 34.6285 215.766 33.3991 210.547 33.3991C205.327 33.3991 200.669 34.6285 196.525 37.0597C192.349 39.5098 189.048 42.8134 186.6 46.993C184.171 51.1404 182.943 55.8025 182.943 61.0265V115.743C182.943 120.967 184.171 125.629 186.6 129.776C189.048 133.956 192.349 137.259 196.525 139.709C200.669 142.141 205.327 143.37 210.547 143.37ZM370.059 173.537V147.68H297.857V116.004L350.924 3.46304H391.161L338.798 114.511H370.059V72.9548H405.737V114.511H420.5V147.68H405.737V173.537H370.059ZM403.814 145.756H418.578V116.435H403.814V74.8787H371.981V116.435H335.765L388.128 5.38695H352.143L299.779 116.435V145.756H371.981V171.613H403.814V145.756ZM178.252 167.342C187.479 172.498 198.244 175.076 210.547 175.076C222.85 175.076 233.615 172.498 242.842 167.342C252.069 162.186 259.258 154.99 264.41 145.756C269.562 136.521 272.138 125.747 272.138 113.434V63.5661C272.138 51.253 269.562 40.4791 264.41 31.2443C259.258 22.0096 252.069 14.8141 242.842 9.65803C233.615 4.50195 222.85 1.92391 210.547 1.92391C198.244 1.92391 187.479 4.50195 178.252 9.65803C169.025 14.8141 161.836 22.0096 156.684 31.2443C151.532 40.4791 148.956 51.253 148.956 63.5661V113.434C148.956 125.747 151.532 136.521 156.684 145.756C161.836 154.99 169.025 162.186 178.252 167.342ZM225.541 141.369C221.081 143.986 216.083 145.294 210.547 145.294C205.011 145.294 200.013 143.986 195.553 141.369C191.093 138.753 187.556 135.213 184.942 130.749C182.327 126.286 181.02 121.283 181.02 115.743V61.0265C181.02 55.4856 182.327 50.4835 184.942 46.02C187.556 41.5565 191.093 38.0165 195.553 35.4C200.013 32.7835 205.011 31.4752 210.547 31.4752C216.083 31.4752 221.081 32.7835 225.541 35.4C230.001 38.0165 233.538 41.5565 236.152 46.02C238.766 50.4835 240.074 55.4856 240.074 61.0265V115.743C240.074 121.283 238.766 126.286 236.152 130.749C233.538 135.213 230.001 138.753 225.541 141.369Z" fill="#343535"/>
</svg>
